# xmcd
#
# Track frame offsets:
#	150
#	12183
#	24900
#	37853
#	50698
#	63176
#	74019
#	86319
#	99213
#	117851
#	129539
#	147119
#	170099
#	184056
#	196147
#	206276
#	225866
#	238611
#
# Disc length: 3344 seconds
#
# Revision: 0
# Processed by: cddbd v1.4PL0 Copyright (c) Steve Scherf et al.
# Submitted via: EasyCDDAExtractor 5.0.0.0
#
DISCID=e00d0e12
DTITLE=Various Artist - Best of the blues cd 3
DYEAR=2000
DGENRE=Blues
TTITLE0=My Babe
TTITLE1=Hi Heel Sneakers
TTITLE2=Mr. Lucky
TTITLE3=Got My Mojo Working
TTITLE4=I'm A Man 
TTITLE5=Little Red Rooster
TTITLE6=Diggin' My Potatoes
TTITLE7=Mindin' My Own Business
TTITLE8=Jumpin' At Shadows
TTITLE9=I'd Rather Go Blind
TTITLE10=Need Your Love So Bad
TTITLE11=The Thrill Is Gone
TTITLE12=I Just Wanna Make Love To You
TTITLE13=How Many More Years?
TTITLE14=Tiger In Your Tank
TTITLE15=Baby What Do You Want Me To Do
TTITLE16=Let's Work Together
TTITLE17=Bring It On Home To Me
EXTD=
EXTT0=
EXTT1=
EXTT2=
EXTT3=
EXTT4=
EXTT5=
EXTT6=
EXTT7=
EXTT8=
EXTT9=
EXTT10=
EXTT11=
EXTT12=
EXTT13=
EXTT14=
EXTT15=
EXTT16=
EXTT17=
PLAYORDER=
